<!DOCTYPE svg PUBLIC "-//W3C//DTD SVG 1.1//EN" "http://www.w3.org/Graphics/SVG/1.1/DTD/svg11.dtd" [
	<!ENTITY ns_flows "http://ns.adobe.com/Flows/1.0/">
]><svg xmlns="http://www.w3.org/2000/svg" width="244" height="245" viewBox="-7.5254 0 244 245" overflow="visible"><path fill="#FEFEFE" d="M133.332 110.21l88.85 53.362c10.195 6.107 9.08 16.78-2.46 23.716l-83.93 50.39c-11.54 6.938-29.31 7.61-39.505 1.487l-88.85-53.362c-10.177-6.107-9.08-16.78 2.46-23.718l83.93-50.39c11.54-6.938 29.31-7.592 39.505-1.486z"/><path fill="#37B4DC" d="M133.58 109.802l88.85 53.363c2.548 1.54 4.424 3.362 5.61 5.345 1.115 1.84 1.63 3.823 1.575 5.823-.053 2.018-.672 4.054-1.84 6.018-1.593 2.657-4.213 5.187-7.805 7.347l-83.93 50.39c-5.84 3.504-13.257 5.434-20.495 5.698-7.24.283-14.32-1.115-19.505-4.212L7.19 186.21c-2.55-1.54-4.425-3.364-5.61-5.347-1.116-1.84-1.63-3.804-1.576-5.822.053-2.016.673-4.05 1.84-6.016 1.594-2.654 4.213-5.168 7.806-7.344l83.93-50.392c5.84-3.504 13.257-5.433 20.495-5.7 7.24-.264 14.32 1.117 19.505 4.214zm88.355 54.177l-88.85-53.365c-5.01-3.01-11.912-4.354-18.975-4.088-7.097.265-14.336 2.14-20.034 5.574l-83.93 50.39c-3.47 2.09-5.965 4.497-7.487 7.028-1.1 1.822-1.666 3.7-1.72 5.542-.053 1.84.425 3.645 1.434 5.326 1.115 1.858 2.885 3.557 5.31 5.027l88.85 53.345c5.008 3.008 11.91 4.354 18.973 4.09 7.097-.267 14.335-2.143 20.034-5.56l83.93-50.407c3.47-2.07 5.966-4.493 7.488-7.007 1.1-1.84 1.664-3.717 1.718-5.557.053-1.823-.425-3.628-1.434-5.327-1.116-1.84-2.885-3.56-5.31-5.01z"/><path fill="#FEFEFE" d="M171.474 133.006v29.274c.035.39.035.796 0 1.203v8.32c.3 2.477-1.275 5.132-4.656 7.167l-41.61 24.974c-5.717 3.45-14.53 3.77-19.575.743l-44.054-26.46c-2.515-1.504-3.63-3.558-3.435-5.664v-8.62a3.63 3.63 0 0 1 0-.884v-29.614c-.124-1.29.265-2.637 1.168-3.91-.903-1.15-1.292-2.443-1.168-3.753v-8.637a3.64 3.64 0 0 1 0-.885V86.67c-.124-1.31.265-2.656 1.186-3.93-.92-1.15-1.31-2.443-1.185-3.752v-8.62a3.79 3.79 0 0 1 0-.903V39.873c-.23-2.426 1.327-5.062 4.655-7.01L88.908 17.68l-.14 2.088c-.196-2.017 1.167-4.106 3.875-5.84l13.362-8.514c4.69-2.99 12.16-3.222 16.302-.62l16.177 10.195c2.106 1.326 3.06 3.044 2.85 4.85l.14-1.718 26.567 15.486c2.585 1.505 3.683 3.646 3.435 5.806v29.292c.035.39.035.797 0 1.204v8.32c.16 1.343-.23 2.76-1.186 4.087.955 1.186 1.344 2.53 1.185 3.894v29.29c.035.39.035.798 0 1.205v8.32c.16 1.344-.23 2.74-1.168 4.07.938 1.203 1.327 2.55 1.168 3.912z"/><path fill="#B2B3B3" d="M172.643 133.06v29.15c.035.228.035.442.035.672 0 .212 0 .442-.035.673v8.177c.175 1.52-.232 3.06-1.17 4.53-.884 1.346-2.23 2.62-4.035 3.718l-41.628 24.99c-3.027 1.823-6.867 2.814-10.602 2.956-3.77.142-7.47-.602-10.195-2.23l-44.053-26.46c-1.38-.832-2.425-1.84-3.08-2.938a6.318 6.318 0 0 1-.902-2.55h-.018v-.283a7.242 7.242 0 0 1 0-.884v-8.636c-.018-.176-.018-.318-.018-.442 0-.157 0-.335.018-.494v-29.56a6.167 6.167 0 0 1 .248-2.317c.177-.53.39-1.044.69-1.575a6.893 6.893 0 0 1-.673-1.47 6.332 6.332 0 0 1-.247-1.113h-.018v-.282a3.647 3.647 0 0 1 0-.886v-8.657c-.018-.16-.018-.32-.018-.442 0-.16 0-.32.018-.478V86.67a5.79 5.79 0 0 1 .265-2.32c.16-.53.39-1.062.673-1.575a7.02 7.02 0 0 1-.673-1.487 6.05 6.05 0 0 1-.247-1.115h-.018v-.283a3.64 3.64 0 0 1 0-.885v-8.637c-.018-.177-.018-.336-.018-.442 0-.178 0-.337.018-.496V39.873c-.106-1.487.3-3.01 1.257-4.426.867-1.327 2.194-2.566 3.982-3.593l26.07-15.168c.104-.212.23-.407.37-.62.744-1.114 1.877-2.176 3.363-3.132l13.38-8.513c2.514-1.61 5.735-2.476 8.904-2.6 3.203-.106 6.354.55 8.637 1.98l16.195 10.197c1.202.76 2.087 1.646 2.653 2.62.088.14.177.3.248.46l.054.017 26.568 15.487c1.432.833 2.477 1.877 3.15 3.01a6.24 6.24 0 0 1 .85 3.894v29.15c.035.23.035.443.035.673 0 .212 0 .442-.036.655v8.196a6.383 6.383 0 0 1-.212 2.442 8.092 8.092 0 0 1-.708 1.68c.3.497.548 1.028.707 1.577a6.2 6.2 0 0 1 .212 2.424v29.15c.035.23.035.444.035.674 0 .212 0 .442-.036.655v8.193a6.386 6.386 0 0 1-.214 2.443 7.287 7.287 0 0 1-.708 1.68c.3.497.548 1.028.707 1.56.23.795.3 1.61.213 2.424zm-2.355 29.22v-29.417c.07-.53.018-1.044-.124-1.556a4.13 4.13 0 0 0-.797-1.47l-.548-.69.51-.725c.39-.55.674-1.115.833-1.664.142-.55.195-1.08.124-1.593v-8.602c.018-.142.035-.3.035-.46 0-.16-.017-.32-.035-.46V86.085c.07-.53.018-1.062-.124-1.558a4.694 4.694 0 0 0-.797-1.486l-.548-.69.512-.724a5.62 5.62 0 0 0 .832-1.664c.14-.53.195-1.08.124-1.592v-8.602c.017-.14.035-.3.035-.46s-.017-.32-.034-.46v-29.56a3.904 3.904 0 0 0-.53-2.495c-.46-.797-1.222-1.54-2.302-2.177L142.25 19.943l-2.106-.212.035-.282a2.947 2.947 0 0 0-.44-1.646c-.373-.636-1.01-1.255-1.88-1.804L121.67 5.8c-1.878-1.184-4.55-1.715-7.312-1.61-2.76.107-5.557.833-7.716 2.213l-13.38 8.53c-1.187.762-2.09 1.594-2.656 2.444a4.2 4.2 0 0 0-.584 1.256l-.09 1.204-2.353.035v-.053L63.383 33.89c-1.45.85-2.513 1.823-3.204 2.85-.672 1.008-.955 2.052-.866 3.026v29.806c0 .123-.018.23-.018.354 0 .14 0 .247.018.336v7.54h.124l-.124 1.292c-.053.495 0 .99.16 1.486.16.495.406.973.778 1.416l.55.69-.514.726a5.956 5.956 0 0 0-.814 1.61c-.142.532-.213 1.045-.16 1.54v29.805c0 .123-.018.23-.018.336 0 .16 0 .265.018.354v7.54h.124l-.124 1.292c-.053.495 0 .99.16 1.486s.406.956.778 1.416l.55.69-.515.726a5.98 5.98 0 0 0-.813 1.61c-.142.513-.213 1.026-.16 1.522v29.804c0 .125-.018.23-.018.355 0 .142 0 .266.018.336v7.542h.124l-.124 1.29a3.94 3.94 0 0 0 .566 2.41c.478.776 1.24 1.502 2.3 2.14l44.054 26.46c2.32 1.398 5.558 2.017 8.885 1.894 3.36-.142 6.795-1.026 9.485-2.637l41.612-24.992c1.485-.885 2.583-1.91 3.273-2.955.656-1.01.92-2.053.798-3.045v-8.583c.017-.16.035-.32.035-.478 0-.16-.017-.32-.035-.46v-.142z"/><path fill="#FEFEFE" d="M123.987 131.023l3.24 1.947h44.247v29.31c.035.39.035.796 0 1.203v8.32c.3 2.477-1.275 5.132-4.656 7.167l-41.61 24.974c-5.717 3.45-14.53 3.77-19.575.743l-44.054-26.46c-2.515-1.504-3.63-3.558-3.435-5.665v-8.62c-.036-.3-.036-.6 0-.883v-30.09h44.248l2.018-1.205c5.717-3.433 14.53-3.77 19.576-.743z"/><path fill="#B2B3B3" d="M124.11 130.828l3.17 1.912h44.424v29.523c.018.212.035.407.035.62s-.02.406-.037.618v8.285c.16 1.31-.195 2.672-1.026 3.965-.797 1.238-2.054 2.405-3.735 3.414l-41.61 24.992c-2.886 1.735-6.567 2.69-10.16 2.815-3.594.14-7.098-.55-9.664-2.087L61.454 178.44c-1.256-.76-2.177-1.664-2.78-2.638a5.272 5.272 0 0 1-.777-3.22v-8.642c-.018-.158-.018-.3-.018-.44 0-.16 0-.302.017-.462v-30.3h44.442l1.947-1.185c2.885-1.735 6.566-2.692 10.16-2.815 3.59-.142 7.097.55 9.662 2.088zm2.992 2.336l-3.24-1.93c-2.477-1.504-5.892-2.158-9.397-2.034-3.522.142-7.116 1.062-9.93 2.76l-2.017 1.204-.125.036H58.377v29.876c-.018.142-.018.284-.018.425 0 .144 0 .285.017.427v8.407h.018l-.018.248a4.865 4.865 0 0 0 .708 2.974c.55.92 1.417 1.753 2.602 2.478l44.07 26.443c2.478 1.504 5.895 2.16 9.4 2.035 3.52-.142 7.114-1.062 9.928-2.76l41.628-24.992c1.61-.973 2.814-2.09 3.576-3.257.777-1.202 1.096-2.46.937-3.663v-8.37c.036-.196.036-.39.036-.585s0-.39-.036-.584v-29.1h-44l-.124-.036z"/><path fill="#F5F5F5" d="M123.987 100.722l44.053 26.46c5.062 3.027 4.513 8.32-1.222 11.77l-41.61 24.974c-5.717 3.433-14.53 3.77-19.575.744L61.58 138.21c-5.062-3.028-4.514-8.32 1.22-11.753l41.612-24.992c5.716-3.433 14.53-3.77 19.575-.743z"/><path fill="#B2B3B3" d="M124.11 100.527l44.054 26.46c1.275.76 2.195 1.664 2.797 2.638.55.92.798 1.893.78 2.902-.035.99-.337 2-.92 2.974-.797 1.31-2.09 2.568-3.876 3.647l-41.61 24.992c-2.886 1.734-6.567 2.69-10.16 2.813-3.593.142-7.098-.55-9.664-2.088l-44.054-26.442c-1.275-.78-2.195-1.682-2.797-2.656a5.38 5.38 0 0 1-.78-2.903c.035-.99.336-2 .92-2.972.796-1.31 2.09-2.566 3.876-3.646l41.61-24.99c2.886-1.736 6.567-2.692 10.16-2.815 3.592-.142 7.098.55 9.663 2.088zm43.825 26.85l-44.073-26.442c-2.477-1.505-5.892-2.16-9.397-2.036-3.522.14-7.116 1.06-9.93 2.76l-41.628 24.99c-1.717 1.027-2.956 2.23-3.7 3.49-.548.9-.83 1.82-.85 2.74-.034.903.214 1.807.71 2.638.548.92 1.434 1.77 2.636 2.494l44.054 26.442c2.477 1.506 5.893 2.16 9.398 2.036 3.522-.14 7.115-1.062 9.93-2.76l41.627-24.992c1.717-1.027 2.957-2.23 3.7-3.47.55-.92.832-1.84.85-2.76.035-.902-.214-1.805-.708-2.637-.55-.92-1.434-1.77-2.62-2.495z"/><path fill="#FEFEFE" d="M123.987 84.244l3.24 1.947h44.247v29.31c.035.39.035.798 0 1.206v8.318c.3 2.46-1.275 5.133-4.656 7.15l-41.61 24.992c-5.717 3.434-14.53 3.77-19.575.743L61.58 131.45c-2.515-1.506-3.63-3.558-3.434-5.665v-8.637a3.54 3.54 0 0 1 0-.885v-30.07h44.247l2.018-1.222c5.717-3.433 14.53-3.752 19.576-.725z"/><path fill="#B2B3B3" d="M124.11 84.05l3.17 1.893h44.424v29.54c.018.196.035.408.035.62 0 .195-.02.408-.037.62v8.284c.16 1.308-.195 2.672-1.026 3.965-.797 1.22-2.054 2.407-3.735 3.417l-41.61 24.99c-2.886 1.733-6.567 2.69-10.16 2.813-3.594.143-7.098-.547-9.664-2.087l-44.055-26.46c-1.256-.744-2.177-1.647-2.78-2.62a5.272 5.272 0 0 1-.777-3.22v-8.66c-.018-.142-.018-.3-.018-.442 0-.142 0-.302.018-.443V85.94h44.442l1.948-1.166c2.885-1.734 6.566-2.69 10.16-2.832 3.59-.124 7.097.567 9.662 2.107zm2.992 2.336l-3.24-1.93c-2.477-1.504-5.892-2.16-9.397-2.035-3.522.126-7.116 1.064-9.93 2.763l-2.017 1.204-.125.035H58.377v29.86c-.018.14-.018.3-.018.425 0 .16 0 .3.017.424v8.425h.018l-.018.248a4.862 4.862 0 0 0 .708 2.973c.55.903 1.417 1.752 2.602 2.46l44.07 26.46c2.478 1.488 5.895 2.16 9.4 2.036 3.52-.14 7.114-1.06 9.928-2.76l41.628-24.99c1.61-.974 2.814-2.09 3.576-3.275.777-1.204 1.096-2.46.937-3.664v-8.353c.036-.195.036-.39.036-.584 0-.195 0-.39-.036-.584V86.42h-44l-.124-.034z"/><path fill="#F5F5F5" d="M123.987 53.943l44.053 26.46c5.06 3.027 4.513 8.32-1.222 11.752l-41.61 24.992c-5.717 3.433-14.53 3.77-19.575.726L61.58 91.43c-5.062-3.044-4.514-8.336 1.22-11.77l41.612-24.99c5.716-3.435 14.53-3.754 19.575-.727z"/><path fill="#B2B3B3" d="M124.11 53.748l44.054 26.443c1.275.763 2.195 1.666 2.797 2.657.55.92.798 1.893.78 2.902-.035.99-.337 2-.92 2.973-.797 1.31-2.09 2.566-3.876 3.646l-41.61 24.99c-2.886 1.735-6.567 2.69-10.16 2.815-3.593.14-7.098-.55-9.664-2.09l-44.054-26.46c-1.275-.76-2.195-1.663-2.797-2.654a5.327 5.327 0 0 1-.78-2.885c.035-.99.336-2 .92-2.973.796-1.326 2.09-2.583 3.876-3.645l41.61-24.99c2.886-1.735 6.567-2.69 10.16-2.832 3.592-.125 7.098.566 9.663 2.105zm43.825 26.85l-44.073-26.442c-2.477-1.505-5.892-2.16-9.397-2.036-3.522.124-7.116 1.062-9.93 2.76L62.908 79.873c-1.717 1.027-2.956 2.23-3.7 3.47-.548.902-.83 1.84-.85 2.76-.034.903.214 1.806.71 2.638.548.92 1.434 1.77 2.636 2.48l44.054 26.46c2.477 1.485 5.893 2.16 9.398 2.034 3.522-.14 7.115-1.062 9.93-2.76L166.71 91.96c1.717-1.025 2.957-2.23 3.7-3.486.55-.902.832-1.84.85-2.743.035-.9-.214-1.804-.708-2.635-.55-.92-1.434-1.77-2.62-2.496z"/><path fill="#FEFEFE" d="M123.987 37.447l3.24 1.948h44.247v29.31c.035.39.035.796 0 1.203v8.32c.3 2.46-1.275 5.13-4.656 7.15l-41.61 24.99c-5.717 3.434-14.53 3.77-19.575.743L61.58 84.65c-2.514-1.504-3.63-3.556-3.434-5.662v-8.62a3.79 3.79 0 0 1 0-.903v-30.07h44.248l2.018-1.204c5.716-3.45 14.53-3.77 19.575-.742z"/><path fill="#B2B3B3" d="M124.11 37.252l3.17 1.894h44.424v29.54c.018.195.035.408.035.62 0 .194-.02.407-.037.62v8.282c.16 1.31-.195 2.673-1.026 3.965-.797 1.22-2.054 2.407-3.735 3.416l-41.61 24.99c-2.886 1.734-6.567 2.69-10.16 2.814-3.594.14-7.098-.55-9.664-2.09l-44.055-26.46c-1.256-.743-2.177-1.645-2.78-2.62a5.267 5.267 0 0 1-.777-3.22v-8.638c-.018-.16-.018-.3-.018-.442 0-.16 0-.318.018-.46v-30.32h44.442l1.948-1.166c2.885-1.736 6.566-2.692 10.16-2.833 3.59-.124 7.097.566 9.662 2.105zm2.992 2.337l-3.24-1.93c-2.477-1.506-5.892-2.16-9.397-2.036-3.522.14-7.116 1.06-9.93 2.76l-2.017 1.204-.125.034H58.377V69.5c-.018.142-.018.284-.018.426s0 .282.017.406v8.426h.018l-.018.247a4.862 4.862 0 0 0 .708 2.973c.55.92 1.417 1.752 2.602 2.46l44.07 26.46c2.478 1.487 5.895 2.16 9.4 2.036 3.52-.14 7.114-1.062 9.928-2.76l41.628-24.992c1.61-.973 2.814-2.088 3.576-3.274.777-1.204 1.096-2.46.937-3.664V69.89c.036-.195.036-.39.036-.585 0-.193 0-.388-.036-.583V39.624h-44l-.124-.035z"/><path fill="#F5F5F5" d="M123.987 7.146l44.053 26.46c5.062 3.027 4.513 8.32-1.222 11.753l-41.61 24.99c-5.717 3.433-14.53 3.77-19.575.743L61.58 44.633c-5.062-3.027-4.514-8.336 1.22-11.77L104.413 7.89c5.716-3.45 14.53-3.77 19.575-.744z"/><path fill="#B2B3B3" d="M124.11 6.952l44.054 26.442c1.275.762 2.195 1.682 2.797 2.655.55.92.798 1.892.78 2.9-.035.99-.337 2-.92 2.975-.797 1.31-2.09 2.566-3.876 3.646l-41.61 24.99c-2.886 1.736-6.567 2.69-10.16 2.816-3.594.14-7.098-.55-9.664-2.088l-44.055-26.46c-1.275-.76-2.195-1.665-2.797-2.656a5.326 5.326 0 0 1-.78-2.885c.036-.99.337-2 .92-2.973.797-1.328 2.09-2.567 3.877-3.646l41.61-24.992c2.886-1.735 6.567-2.69 10.16-2.833 3.592-.123 7.098.567 9.663 2.107zm43.825 26.85L123.862 7.357c-2.477-1.504-5.892-2.158-9.397-2.034-3.522.123-7.116 1.06-9.93 2.76L62.908 33.076c-1.717 1.026-2.956 2.23-3.7 3.47-.548.9-.83 1.84-.85 2.76-.034.902.214 1.805.71 2.637.548.92 1.434 1.77 2.636 2.478l44.054 26.46c2.477 1.49 5.893 2.16 9.398 2.038 3.522-.142 7.115-1.063 9.93-2.762l41.627-24.99c1.717-1.027 2.957-2.23 3.7-3.487.55-.904.832-1.84.85-2.745.035-.902-.214-1.805-.708-2.637-.55-.92-1.434-1.77-2.62-2.496z"/><path fill="#7AAF34" d="M128.27 85.11v7.187c.124.284.07.443.32.514.175.07.44-.034.69-.246.6-.514.582-1.098.582-1.912 0-1.114-.035-3.663 0-4.618l3.275 3.327c.25.177.39.425.832.336.424-.088.865-.425 1.114-.92.264-.53.194-1.203.194-1.788v-5.84c0-.69-.054-1.08-.48-1.01-.442.09-.884.567-1.008 1.098-.142.53-.035 4.78-.07 5.77-.285-.106-3.416-3.54-3.77-3.717-.267-.124-.673 0-1.062.424-.62.673-.513 1.01-.62 1.398zm16.142-7.326l1.363-.814c.053-.637.018-1.61.018-2.248 0-.62-.107-1.274-.673-.956-.567.32-.725 1.044-.725 1.752 0 .62-.054 1.752.017 2.266zm1.38 3.77l-.017-3.7-1.38.797c0 .727-.02 3.54.017 3.984.088 1.222 1.38.514 1.38-1.08zm15.575-8.938v-.354c-.14-.336-.035-.425-.406-.78-.193-.176-.405-.3-.6-.46-.21-.14-.39-.282-.6-.424-.144-.106-.55-.354-.604-.513.16-.23.443-.832.584-1.115.212-.407.39-.76.6-1.17.23-.423.71-1.308.85-1.698.072-.248.107-.496.177-.69v-.336c-.105-.248-.212-.885-.902-.336-.478.37-.744.955-.974 1.398-.53 1.027-1.042 2.035-1.573 3.062-.336-.036-1.68-1.38-2.177-1.452-.868-.124-1.61 1.328-1.186 2.195.283.602 1.822 1.345 2.07 1.717-.265.69-1.804 3.31-2.052 4.106-.46 1.434.336 2.69 1.893-.442.16-.284 1.327-2.55 1.4-2.726.476 0 1.733 1.68 2.547 1.38.23-.07.46-.283.62-.513.23-.354.195-.46.335-.85zm-9.185.07c.088.903-.107 5.133.088 5.54.14.32.584.3 1.043-.177.41-.426.46-.92.46-1.576v-5.788c0-.655.055-1.222-.264-1.398-.39-.214-1.064.123-1.54 1.024l-2.303 5.027c-.14.354-1.238 2.744-1.327 2.886-.017-.656.054-5.275-.053-5.593-.14-.372-.565-.372-1.01.088-.422.426-.494.85-.494 1.54l.018 5.736c0 .566-.07 1.327.18 1.557.23.212.707.017 1.132-.407.55-.53 1.08-1.894 1.47-2.744l2.602-5.717zm-14.55 14.868l3.93-2.354c.106-.09 1.363-4.053 1.522-4.53.09-.302.442-1.276.477-1.54-.74.46-4.14 2.353-4.564 2.813-.654.708-.62 1.823.054 1.68.353-.07 1.803-1.025 2.282-1.29l-.62 1.752-2.177 1.31c-.14-.46-1.08-1.84-1.15-2.124-.035-.122.974-3.13 1.098-3.467l2.37-1.416.71 1.115 1.61-.955-1.523-2.478-4.106 2.442c-.158.442-.318.973-.46 1.415l-.92 2.815c-.106.37-.442 1.256-.407 1.416l1.876 3.398z"/><path fill="#CC3AC9" d="M81.95 76.19c-.016 0-1.308-.158-.636 1.647.142.354.3.478.53.814l.054.02c.514.37.868.548 1.363.637.267.053.94.07 1.046-.053.266.036.354-.195.584-.23.6-.513.92-1.044 1.08-2.478-.178.16-.142.336-.408.407-.195.036-.46-.035-.726-.265-.495-.425-.76-1.08-.78-1.806l-.016-.972c-.142.584-.425.814-1.062.425l-.107-.07-.935-.568c-.09 0-.195-.035-.284-.018-.052 0-.087 0-.123.017-.088.054-.052.018-.106.107-.21 0-.317.548-.246.973.07.514.283.832.513 1.186l.265.23z"/><path fill="#DA70D7" d="M84.164 75.625a2.543 2.543 0 0 1-.107-.744l-.017-.97c-.142.583-.425.813-1.062.423l-.107-.07-.935-.567c-.09 0-.195-.035-.283-.018-.053 0-.088 0-.123.018-.09.053-.054.018-.108.107-.212 0-.318.548-.247.973.07.513.283.832.513 1.186l.248.213c.973.513 1.805.266 2.23-.548z"/><path fill="#F23076" d="M81.97 66.952l.37-.035c.638.123 1.045.035 1.894.637.266-.018.354.088.55-.09.14-.123.247-.353.247-.742a2.433 2.433 0 0 0-.9-1.752c-.64-.407-1.33-.673-1.894-.76-.337-.055-1.274-.108-1.4.07-.21-.036-.777.265-.937.39-.07.052-.07.052-.09.122-.32.072-.866.92-1.08 1.417-.282.706-.44 1.413-.494 2.457l.017.09c.018-.478.425-.71.797-.567.247.107.494.32.67.603.143.177.338.548.355.796.07.14.07.175.106.335V69.8c.056-.387.09-.76.18-1.078.053-.16.088-.283.14-.425.054-.106.143-.248.16-.37l.14-.16c.285-.408.71-.744 1.17-.815z"/><path fill="#630EB1" d="M85.97 76.545c-.16 1.434-.48 1.965-1.08 2.478-.23.035-.32.265-.585.23-.106.123-.78.106-1.044.053-.493-.09-.847-.265-1.36-.637-.125.104-.32-.038-.497.122-.318.265-.336.92-.07 1.592.16.39.283.46.495.762l1.01.6c.14.002.707.25.937.302.655.14 1.61.106 2.09-.213.052-.035.034-.018.052-.053.14.018.318-.16.425-.248.426-.336.62-.55.957-1.15.37-.69.565-1.63.636-2.78-.124.213-.178.39-.355.497-.336.16-.92-.177-1.29-.832-.18-.353-.18-.495-.32-.884v.16z"/><path fill="#018E81" d="M84.323 70.085c.106.142.548.477.708.62l.586.62c.177.264-.16-.267.036.052l.036.088c.248.177.743 1.01.938 1.275.213.477.673 1.24.78 1.805.14.248.335 1.044.388 1.363.124.62.142 1.062.142 1.663.123.445.09.46.3.85.355.675.92 1.03 1.275.85.248-.14.195-.21.354-.476V77.75c-.16-.568-.106-2.302-1.398-5.01-.106-.195-.213-.513-.337-.62-.124-.354-.514-.938-.744-1.292-.265-.425-.548-.78-.867-1.186a10.757 10.757 0 0 0-2.25-2.07c.196.3.337.37.514.708.106.247.23.62.248.938.018.725-.318.92-.707.867z"/><path fill="#83BD72" d="M85.74 74.757c.14.602.317.99.23 1.63.14.388.14.53.318.883.37.655.955.992 1.29.833.178-.107.232-.284.356-.496v-.036c0-.6-.018-1.042-.142-1.66-.053-.32-.248-1.116-.39-1.364-.105-.567-.565-1.328-.778-1.805-.195-.264-.69-1.097-.938-1.274l-.036-.088c-.194-.32.142.212-.035-.053l-.584-.62c-.16-.142-.6-.477-.706-.62l-.106-.035c.195.212.3.318.46.583.194.302.176.39.3.726.09.742-.07 1.273-.442 1.22h-.23s0 .035-.035.053c.443.318.83.796 1.15 1.362.07.142.07.124.107.266.09.125.16.32.213.496z"/><path fill="#FE8359" d="M83.28 69.695c.37.07.494.09.937.354l.106.034c.39.053.725-.142.708-.867-.015-.32-.14-.69-.246-.938-.177-.338-.318-.408-.513-.71l-.035-.017c-.85-.602-1.256-.514-1.894-.637l-.37.035c-.46.07-.885.408-1.17.816l-.14.16c-.017.122-.106.264-.16.37-.052.142-.087.265-.14.425-.09.32-.125.69-.178 1.08.072-.053.143-.265.232-.353a.498.498 0 0 1 .37-.124c.355.017.85.46.993.85.176.212.265.53.336.884.07-.123.07-.39.124-.53a1.46 1.46 0 0 1 .213-.443c.14-.195.424-.425.708-.372l.124-.018z"/><path fill="#3742B6" d="M79.138 75.943l.052.106c.477.795 1.964 2.176 2.655 2.6-.23-.336-.39-.46-.53-.814-.673-1.805.62-1.646.636-1.646l-.263-.23c-.124.037-.496-.353-.69-.512-.125-.177-.32-.372-.46-.53-.195-.214-.23-.284-.408-.515a7.48 7.48 0 0 1-.71-1.132c-.264-.406-.85-1.662-.902-2.193l-.017-.124-.21-1.15c-.02-.337-.073-.78-.037-1.045l-.018-.088c-.053-.142-.088-.337-.14-.48-.036-.122-.143-.317-.196-.423-.14-.248-.39-.53-.656-.673-.69-.407-.814.23-.938.442v.85c.035.177.142 1.186.195 1.522.09.425.23 1.08.355 1.416.212.867.637 1.788.956 2.442.16.354 1.063 1.965 1.33 2.177z"/><path fill="#C7D75D" d="M84.057 74.88c.018.727.284 1.382.78 1.807.265.23.53.3.725.265.266-.07.23-.248.407-.407v-.16c.086-.637-.09-1.026-.23-1.628-.055-.177-.126-.37-.215-.495-.035-.142-.035-.124-.106-.266-.32-.566-.71-1.044-1.15-1.362.034-.018.034-.053.034-.053-.39-.193-.69-.39-1.06-.6.28.37.37.354.583.832.16.354.23.673.212 1.098l.016.973z"/><path fill="#2E5CE1" d="M79.42 73.27c.16.337.443.78.708 1.133.178.23.213.3.407.513.142.16.336.355.46.532.195.16.567.55.69.513-.23-.352-.442-.67-.513-1.184-.07-.425.036-.973.248-.973.054-.09.018-.053.106-.107.036-.018.07-.018.124-.018.09-.017.195.018.283.018a1.336 1.336 0 0 1-.248-.194.313.313 0 0 1-.106-.105c-.055-.07-.055-.054-.07-.106l-.303-.284c-.07-.142-.124-.177-.213-.3-.052-.07-.052-.07-.088-.16-.07-.124-.036-.036-.07-.16-.16-.158-.302-.548-.408-.814-.072-.335-.213-.654-.25-1.025v-.62c-.034-.16-.034-.194-.105-.336-.018-.25-.212-.62-.354-.797a1.527 1.527 0 0 0-.673-.6c-.37-.143-.778.088-.796.565-.035.266.02.708.037 1.044l.21 1.152.02.124c.053.53.637 1.787.902 2.195z"/><path fill="#FED763" d="M83.28 69.695l-.125.018c-.284-.053-.567.177-.708.372-.09.124-.16.265-.213.442-.053.142-.053.408-.123.53v.833l.02.46c.05-.318.194-.478.354-.548.247-.107.406.017.76.177.372.21.673.405 1.062.6h.23c.372.053.53-.478.443-1.22-.125-.338-.108-.426-.3-.728-.16-.265-.267-.37-.46-.583-.445-.267-.57-.285-.94-.356z"/><path fill="#2D8AFB" d="M81.51 73.29c.016.05.016.034.07.105.035.053.053.07.106.106.07.073.16.144.248.196l.937.567c-.157-.213-.263-.283-.404-.55a1.075 1.075 0 0 1-.16-.317l-.088-.213c0-.018 0-.035-.018-.052-.054-.14 0-.017-.054-.106.018-.177-.035-.442-.018-.673l-.017-.46v-.83c-.07-.355-.16-.673-.335-.885-.14-.39-.637-.832-.99-.85a.494.494 0 0 0-.372.124c-.09.087-.16.3-.23.352v.746c.035.37.176.69.247 1.025.105.267.247.657.406.816.035.122 0 .035.07.16.037.087.037.087.09.157.088.124.14.16.212.3l.3.285z"/><path fill="#434242" d="M69.332 80.244l.566.337v-1.31l.62.373c.69.425 1.256.283 1.256-.62v-.017c0-.814-.46-1.628-1.203-2.07l-1.237-.762v4.07zm.566-1.61v-1.47l.637.39c.407.248.673.655.673 1.133v.017c0 .425-.266.567-.673.32l-.637-.39zm1.86 3.08l.565.335.318-.798 1.49.903.317 1.168.567.354-1.38-4.92-.496-.32-1.38 3.275zm1.078-.957l.55-1.31.53 1.947-1.08-.637zm3.77 3.948c.655.39 1.115.212 1.115-.55 0-.672-.334-1.185-1.007-1.804-.6-.547-.743-.78-.743-1.096 0-.266.193-.372.512-.177.283.177.566.495.85.938l.3-.37c-.318-.515-.69-.922-1.15-1.187-.62-.39-1.062-.177-1.062.53 0 .762.37 1.24 1.044 1.84.584.532.708.762.708 1.063 0 .32-.212.39-.548.178-.39-.23-.69-.602-.992-1.115l-.336.3c.372.673.832 1.15 1.31 1.453zm2.814 1.7c.673.406 1.133.228 1.133-.532v-.018c0-.673-.354-1.186-1.01-1.788-.6-.566-.742-.78-.742-1.097v-.018c0-.265.18-.372.497-.177.3.177.584.495.867.938l.284-.354c-.32-.533-.673-.92-1.133-1.205-.62-.372-1.08-.16-1.08.53v.02c0 .74.39 1.22 1.045 1.84.583.53.706.76.706 1.043v.017c0 .3-.212.372-.548.177-.39-.23-.69-.62-.99-1.132l-.337.318c.39.654.833 1.15 1.31 1.434zm1.77 1.008l2.354 1.433v-.637l-1.805-1.1v-1.097l1.573.956v-.638l-1.575-.956v-1.044l1.786 1.062v-.638L81.19 83.36v4.053zm3.01 1.822l.547.337V86.67l1.718 3.946.46.265v-4.05l-.53-.336v2.814l-1.683-3.823-.513-.318v4.07zm5.025 3.115c.55.337.992.32 1.31.16v-1.718l-1.345-.796v.62l.814.478v.76c-.194.072-.46.036-.76-.14-.638-.39-1.062-1.276-1.062-2.107v-.018c0-.78.424-1.17 1.008-.816.407.248.637.55.885.974l.336-.337c-.316-.55-.653-.956-1.2-1.274-.94-.584-1.61-.018-1.61 1.115v.018c0 1.186.635 2.48 1.626 3.08zm2.018 1.15l2.354 1.417v-.637l-1.805-1.08v-1.097l1.575.955v-.637l-1.575-.954v-1.062l1.787 1.08v-.637L91.24 89.43v4.07zm3.01 1.824l.548.32v-1.418l.69.425.78 1.878.656.407-.85-2.053c.425.107.743-.123.743-.777v-.018c0-.354-.107-.708-.266-1.027a2.33 2.33 0 0 0-.903-.955l-1.397-.85v4.07zm.548-1.717v-1.38l.798.495c.407.248.656.637.656 1.062v.017c0 .41-.25.533-.638.286l-.814-.478z"/><path fill="#37B4DC" d="M113.35 89.165h1.433v2.16c.46.016 1.24 0 2.16-.284v1.435c-.94.248-1.682.248-2.16.283v2.16h-1.433v-2.16c-.655.036-1.664-.106-2.16-.283V91.04c.814.284 1.858.32 2.16.284v-2.16z"/><path fill="#D82B20" d="M136.288 172.21c.088-.178.035 0 .053-.302l-.016-1.133c-.69-.017-1.68.16-2.46.248-2.814.32-2.105-.124-5.185 3.257-.285.3-2.286 2.354-2.46 2.815-.09.318-.09 1.238.034 1.38.07.176-.036.087.158.14.072.036.16.02.232.02-.213.335-.284.282-.443.654-.036.37-.09 1.184.054 1.343.017.212.088.177.3.106-.212.566-.354.265-.37.92-.02.32-.055.92.05 1.062.055.194-.05.158.532.158.815 0 4.142-.21 4.585-.547.39-.283.903-1.01 1.275-1.4l2.53-2.9c.372-.426 1.045-1.063 1.134-1.576.087-.213.052-.178.07-.442v-.62c-.018-.585-.14-.25-.408-.425.073-.07.16-.16.214-.23.248-.407.088-.09.124-.372.088-.177.035 0 .053-.3l-.017-1.01c-.14-.23.035-.07-.194-.124l-.214-.07c.09-.09.142-.124.213-.23.23-.354.14-.16.16-.425z"/><path fill="#636466" d="M125.827 190.44c0 .848.336 1.255.69 1.416.673.3 1.61-.23 2.408-1.345.318-.46.318-.636.124-.94-.62.198-.64.834-1.418 1.17-.496.213-.832.054-.92-.495.707-.424 1.397-.85 2.105-1.257.85-.512.92-1.08.53-1.84-.848-1.61-3.538.726-3.52 3.293zm.85-1.01c.265-1.575 1.894-2.336 2.14-1.274l-2.14 1.275z"/><path fill="#636466" d="M125.845 188.05c-.443.194-1.062.708-1.24 1.22-.228-.105-.194-.423-.566-.158-.303.212-.37.513-.37.903v3.362c0 1.01.723.443.81-.14.108-.586-.3-2.657.87-3.86.3-.3.494-.3.636-.708.14-.373-.017-.497-.142-.62zM134.34 182.19l.39-.212c1.01-2.194-1.398-.725-.39.213zM137.368 183.04c-.196.036-.372.107-.567.16-.28.088-.405.142-.476-.088.142-.496.637-.85 1.01-.833 0 0 .76.246.884-.638.124-.903-1.274-.495-1.982.283-.567.637-1.7 3.026.708 2.283 1.398-.425.21 1.203-.708 1.078-.142-.017-.78-.14-.832.69-.053.638 1.097.638 1.947-.122 1.24-1.133 1.576-3.15.02-2.815zM132.66 182.35c-.053.32-.018 1.558-.018 1.948-.708.07-1.292.14-2.018 1.203-1.115 1.613-1.257 3.79.018 4.09.69.16 1.345-.442 1.982-1.22.142.09.212.3.53.053.25-.213.32-.514.32-.85v-5.45c0-.815-.708-.338-.814.23zm-.744 5.7c-1.292 1.292-1.894-.85-.62-2.195 1.292-1.344 1.93.92.62 2.195zM134.128 183.75v3.433c0 .92.833.46.833-.584v-3.348c0-.955-.83-.46-.83.496z"/><path fill="#FFF" d="M128.836 174.952c-1.717 1.292-.76 1.824.744.708.353-.264 1.256-1.133.707-1.31-.318-.088-1.026.3-1.45.602zM129.97 175.96l1.52-.105.673-1.646c-.495.316-1.857 1.343-2.194 1.75zM130.907 172.935c-.212.283-.337.354-.478.53-.02.018-.07.09-.09.107l.85-.337.32.425.21-.69.814-.583-.6.035.14-.603c-.867.85-.495.547-1.31.724.036.178.09.213.142.39z"/><path fill="#A41E11" d="M133.65 173.235v-1.344l-1.468 1.595c.23.088 1.204 0 1.468-.25z"/><path fill="#7A0C00" d="M133.65 173.235c.39-.407 1.01-1.008 1.292-1.45l-1.292.106v1.346z"/><path fill="#A41E11" d="M126.253 180.634c.017.212.088.178.3.106.018 0 .036-.017.036 0 .05.195 2.07-.09 2.263-.106 2.904-.212 1.982.212 4.796-2.99.69-.763 1.77-1.93 2.3-2.674.072-.07.16-.16.213-.23.248-.407.088-.09.124-.372l-.036-1.115c-.07.372-4.742 5.593-4.92 5.717-.55.408-4.23.496-5.114.512l.036 1.152z"/><path fill="#A41E11" d="M126.234 182.723c.054.194-.052.158.53.158.816 0 4.143-.21 4.586-.546.39-.283.902-1.01 1.274-1.398l2.53-2.903c.373-.425 1.045-1.062 1.134-1.575l-.036-1.115c-.053.318-.813 1.098-1.15 1.47-.707.796-3.434 4-3.77 4.247-.46.336-2.124.353-2.636.388-.833.07-1.736.177-2.48.106l.018 1.17z"/><path fill="#A41E11" d="M126.253 178.475c.07.176-.036.088.158.14.073.036.16.02.233.02.69-.072 1.504-.108 2.265-.178 2.885-.213 1.876.266 4.708-2.92l2.194-2.55.053-.052a.248.248 0 0 0 .053-.072c.09-.088.14-.123.213-.23.227-.353.14-.158.157-.424l-.036-1.134c-.087.37-2 2.442-2.353 2.85-2.673 3.008-2.212 3.08-3.93 3.168-1.078.07-2.903.336-3.75.212l.035 1.168z"/><path fill="#B0AF90" d="M157.545 167.412c.053.302.088.514.105.868l.036.76.23.02c0-.568-.07-1.63.142-2.09-.053-.018.035-.69 0-.743-.018-.09-.053-.16-.09-.265-.087-.39-.282-.62-.318-.938v-.053l-.017-.016c0 .3.017 2.247-.088 2.46z"/><path fill="#459F36" d="M156.43 157.466c-.036.07-.02.09-.054.177l-.14.548c-.46 1.86-.673 4.126-.46 5.72.14.92.406 1.7.69 2.21.282.48.565.87.92 1.15.088.055.105.055.16.143.105-.212.176-1.575.176-1.894l.017.036v.052c.034.32.016.62.105 1.01.017.105.07.158.09.265.033.052.07.07.122.09l.39-.798c.353-.727.67-1.753.884-2.638.337-1.345.48-2.955.37-4.336-.086-1.185-.44-2.406-.775-3.08a7.503 7.503 0 0 0-.302-.547c-.106-.178-.213-.3-.337-.46-.105-.14-.23-.23-.336-.426-.087-.176-.246-.636-.264-.654-.584 5.345.513 8-1.24 3.54-.016-.07-.016-.017-.016-.106z"/><path fill="#94795D" d="M164.02 165.82c-.37-.177-.706 0-1.13.265-.266.16-.55.353-.815.496l-.477.267c-.036.09-.107.283-.088.372.512-.196.476-.125.476.724 0 .832.018 1.717 0 2.53 0 .25.018.69-.087.887-.126.248-.233.124-.286.407-.017.07-.035.142-.017.214.372-.213.76-.425 1.133-.637.637-.354 1.292-1.027 1.628-2.107.46-1.38.336-3.097-.337-3.416zm-.21 3.947c-.248.566-.496.884-.867 1.044-.496.23-.478-.086-.478-.706v-3.152c0-.16.035-.23.124-.3.28-.25.69-.372.9-.283.23.068.407.264.513.636.195.654.143 1.982-.194 2.76zM167.066 166.032c-.07-.017-.212.018-.265-.017h.02l.194-.32c.213-.44.3-.884.213-1.326-.088-.498-.425-.57-.832-.34-.513.3-.868.53-1.398.815-.018.09-.09.283-.07.354.105 0 .282-.125.37-.07.09.052.07.44.07.706v2.337c0 .23 0 .937-.05 1.133-.037.123-.16.23-.25.3-.07.053-.088.036-.105.16-.018.07-.053.194-.035.248l1.24-.673c.653-.39 1.326-1.326 1.326-2.46 0-.53-.175-.78-.424-.85zm-1.24.142c0-.142 0-1.22.02-1.31.017-.142.07-.177.194-.23.407-.248.743-.213.743.53 0 .92-.477 1.116-.866 1.328-.107.053-.09.09-.09-.318zm.55 2.636c-.566.336-.55.072-.55-.85 0-.28-.016-.742 0-1.026.11-.106.462-.283.585-.318.18-.035.303 0 .41.106.3.32.23 1.665-.443 2.088z"/><path fill="#4E3629" d="M152.96 173.59c-.602.37-1.114 1.292-1.114 2.388 0 1.028.354 1.558.956 1.222.6-.354 1.08-1.363 1.08-2.39v-.14c0-.903-.39-1.38-.922-1.08zm.443 2.264c-.036.337-.16.638-.337.815-.424.37-.673-.09-.76-.64-.088-.635-.02-1.52.353-1.876.23-.212.405-.158.53-.035.265.283.3 1.097.212 1.733zM151.173 176.723c0-.496.035-1.08-.07-1.434-.197-.568-.584-.39-.957.192s-.247.584-.407.354c-.285-.46-.745.16-1.028.725-.177.32-.054-.246-.107-.406-.3.355-.3.355-.637.656-.054.053-.124.16-.09.214.036.053.178 0 .284.053.053.035.07.052.07.194 0 .23.018 1.878-.034 2.073-.053.23-.23.283-.284.39a.575.575 0 0 0 0 .248c.053.018.16-.107.23-.142l.266-.158c.107-.073.39-.198.494-.284.02-.09.02-.178.02-.266-.373.088-.32.212-.32-1.293v-.495c0-.178-.018-.32.053-.443.246-.46.637-.815.796-.374.106.3.07 1.345.053 1.788 0 .16.017.3-.07.408-.055.07-.18.176-.197.21-.07.073-.053.213-.036.302.16-.105.337-.212.495-.318.142-.07.354-.177.496-.266 0-.088.052-.282-.018-.282-.036 0-.142.054-.196.036-.088-.017-.088-.142-.088-.318V176.65c0-.106-.017-.37 0-.44.018-.056.142-.233.177-.285.073-.09.16-.195.23-.247.197-.126.338-.055.39.07.108.193.09.46.09.795v.973c0 .48-.053.408-.265.673-.02.053-.02.177-.02.23.02.07.02.036.124-.034l.583-.355c.07-.034.213-.09.283-.14.02-.106.02-.195.02-.3-.426.176-.337-.02-.337-.868zM156.323 174.616c-.053-.035-.036-.336-.036-.478-.017-.39 0-.796-.017-1.186 0-.336-.035-.672-.14-.832-.444-.724-1.117.78-1.17.832-.018-.23.035-.37-.018-.548-.052.052-.105.16-.176.212-.16.195-.53.495-.566.62-.07.195.106.106.265.16.07.017.09.05.09.21v.426c0 .46 0 .903-.02 1.364 0 .39-.088.39-.283.565-.017.127-.017.23 0 .34.124-.07.407-.267.585-.373l.425-.23c.034-.195.034-.16.016-.337-.336.07-.318.39-.318-1.328 0-.585-.034-.725.143-1.01.23-.334.547-.53.69-.21.07.16.07.495.07.76v1.062c0 .3-.035.372-.283.55a1.1 1.1 0 0 0 0 .334c.194-.105.37-.248.584-.372l.407-.212c.038-.035.055-.3.02-.335s-.195.07-.266.015zM160.058 169.43c-.567.424-1.01 1.345-.992 2.372.036 1.965 1.257 1.31 1.752.14.16-.352.284-.883.284-1.415 0-1.026-.425-1.556-1.044-1.097zm.567 2.23c-.16 1.01-.94 1.328-1.098.106-.09-.637-.017-1.522.354-1.858.23-.212.426-.14.533-.017.247.3.32 1.117.213 1.77zM158.766 170.775c.052-.124.106-.46.052-.548-.088.142-.088.247-.3.372-.3.174-.39-.038-.76.192-.267.142-.657.654-.798 1.17a2.265 2.265 0 0 0-.088.6c0 1.044.46.833.46.902.018.07-.142.302-.177.354-.053.106-.16.247-.177.335 0 .196.124.32.212.355.02.017.072 0 .088.035-.016.07-.105.23-.14.3-.143.267-.337.603-.337.957 0 .638.41.778.8.55l.05-.037c.55-.318 1.15-1.363 1.15-2.23 0-.638-.23-.69-.564-.566-.195.07-.62.3-.725.264-.053-.016-.09-.14-.035-.282.07-.193.23-.21.424-.44.14-.143.283-.373.354-.533a2.31 2.31 0 0 0 .194-.69c.07-.46.018-.513 0-.796.124-.09.212-.018.32-.266zm-1.24 3.735c.16-.16.727-.443.867-.194.143.265.037.902-.318 1.274-.264.3-.637.442-.83.16-.232-.32.033-1.01.282-1.24zm.23-1.61c-.3.195-.443-.09-.478-.513-.05-.48.054-.99.336-1.204.284-.195.444.09.48.53.035.46-.07 1.01-.337 1.186z"/><path fill="#58AE48" d="M156.43 157.466c0 .09 0 .035.017.106l.32 1.416a41 41 0 0 0 .335 1.522c.053.265.107.478.16.743.052.213.495 2.16.512 2.302.018-.09.018-.212.018-.283v-2.107c-.018-1.168 0-6.797-.106-7.133v-.106c-.018.036-.018.02-.018.07v.072c-.054.548-.247.76-.53 1.398-.143.37-.283.708-.426 1.098-.035.123-.265.777-.282.902z"/><path fill="#336691" d="M67.986 159.625c-.017-.726.072-1.576.248-2.124.07-.263.177-.51.3-.724.143-.248.302-.337.408-.548-.99-1.027-2.478-2.09-3.292-1.416-.743.637-.513 2.69-.266 4.284.125.78 1.15 6.973 2.196 5.947l.973-.92c-.885-1.575-.53-2.673-.567-4.495zM73.12 163.536c.14.62.637 2.248.867 2.744.248-.318.123-1.257.088-1.86-.07-.848.035-1.29.088-2.034-1.078-.637-1.45-.567-1.044 1.15zm.123-1.22c.07-.196.32-.09.55.122.034.55-.443.3-.55-.123z"/><path fill="#336691" d="M74.43 161.89c.193.832-.09 1.735-.018 2.69.176 2.248-.107 1.753-.16 2.266a.15.15 0 0 1-.01.05c.006.005.015.02.028.056.123.09.832-1.522.955-1.84.3-.85.974-3.01.425-4.354-.177-.443-.495-.94-.814-1.346-.673-.83-1.664-1.663-2.496-1.77.39.62.673.76 1.24 1.93.318.655.655 1.416.85 2.32zM74.242 166.897c-.012-.013-.008.02 0 0zM69.562 164.705c.123-.195.283-.814.39-1.08.3-.726.3-2.142.052-3.08-.248-.884-1.203-.955-1.504-.867-.248.052-.16.265-.142.655.018.655-.053 1.114-.07 1.698-.036 1.047.53 2.25 1.274 2.676zm.32-4.178c-.037.496-.532.107-.62-.247-.107-.478.442-.124.62.247z"/><path fill="#336691" d="M73.367 165.447c-.513-1.592-1.7-5.184.743-3.54-.778-4.105-5.61-8.194-5.752-2.742.39.018.85-.054 1.38.407.496.442.638 1.044.726 1.823.284 2.478-.336 2.478-.53 3.628 1.787.94-.354 6.036 1.982 6.957 1.186.46 1.24-.266 1.398-1.665.07-.6.123-1.204.177-1.823.073-.973-.016-1.045.515-1.257-.247-.725-.265-.636-.637-1.788z"/><path fill="#336691" d="M74.058 167.784c-.16.035-.196.23-.16.53.32.32.708.497 1.044.585.283.07.637.07.832-.108-.407-.16-.85-.266-1.257-.673-.177-.178-.282-.373-.46-.337zM69.58 165.89c-.3.23-.673-.07-1.027 0 .62.92 1.982.974 1.77.072-.213-.85-.69-.125-.743-.07z"/><path fill="#E06E13" d="M98.447 178.563c-.372.07-.496.23-.513 1.08-.07 2.354 1.486 2.23 2 3.186.14.23.14.653.088.972-.088.548-.602.175-.92 0-.39-.232-.797-.46-1.186-.708v.813c.673.39 1.664 1.133 2.283 1.204.405.054.46-.3.46-1.22 0-.85-.09-1.346-.46-1.75-.338-.39-.71-.62-1.064-.888-.14-.106-.406-.265-.496-.495-.105-.248-.087-.76-.052-1.01.053-.317.107-.266.408-.123l1.735.902v-.778c-.53-.302-1.875-1.275-2.282-1.188zM104.128 186.475c.018-.55.018-2.62 0-3.222 0-.513-.053-.814-.283-1.22-.354-.656-.92-.974-1.38-1.24-.248-.142-.53-.3-.744-.318a.38.38 0 0 0-.28.052c-.337.196-.373.726-.373 1.452 0 .724-.035 2.387.106 3.095.177.956.744 1.24 1.204 1.54.212.124.566.3.762.53.21.23.3.638.494.92.177.267.513.41.743.55l-.55-1.346c.108-.265.267-.124.302-.796zm-.637-.248c-.104-.036-.21-.3-.263-.424-.07-.16-.124-.32-.23-.48-.178-.264-.53-.442-.744-.565.036.16.32.83.442 1.203-.813-.405-.937-.563-.955-2.016 0-.547-.02-1.185 0-1.716.034-.602.105-.76.388-.656.248.108.602.32.85.497.53.354.513.407.53.94.036.635.072 2.76-.017 3.22zM107.28 188.758c-.373-.23-.744-.48-1.116-.726a10.646 10.646 0 0 1-.567-.39c-.194-.14-.336-.265-.39-.6-.122-.833-.017-4.036-.07-4.62l-.584-.372c-.017.177 0 2.443 0 2.813 0 .708-.035 2.125.177 2.62.23.567.76.957 1.15 1.204.46.3.938.584 1.416.884 0-.227.018-.6-.017-.81z"/><path fill="#336691" d="M89.668 178.935l.673.407v-4.655c.055.176.125.53.16.726.196 1.026.53 2.778.744 3.717.053.194.124.566.177.707.125.354.64.55.815.514.107-.034.143-.23.195-.44.106-.355.194-.727.3-1.098.106-.388.195-.76.3-1.13.036-.18.25-1.1.284-1.17.053.725.053 3.788.053 4.654l.673.407c-.017-.653.036-5.025-.107-5.52-.105-.443-.424-.797-.707-.867-.32-.07-.39.124-.496.566l-.584 2.23c-.053.193-.106.37-.16.565-.053.178-.105.443-.194.425-.106-.37-.213-1.027-.283-1.452-.126-.584-.586-3.256-.746-3.592-.088-.195-.194-.354-.336-.46-.25-.177-.603-.195-.69.035-.07.214-.054 1.328-.054 1.7 0 1.24 0 2.514-.018 3.735zm7.115 4.353c-.017.515-.035.673-.3.62-.355-.088-1.558-.867-1.983-1.096 0 .247-.018.672.053.866.124.3 1.168.815 1.398.92.498.23.85.443 1.24.23.178-.088.23-.3.25-.813.034-.885.017-3.54 0-4.48l-.656-.405v3.274c-.23-.142-1.433-.797-1.54-1.045-.124-.32-.07-2.674-.07-3.188l-.673-.406v2.16c.02.83 0 1.256.32 1.75.442.745 1.77 1.33 1.964 1.61z"/><path fill="#37B4DC" d="M81.03 172.067c.868.514 1.488.02 1.488-1.008v-.02c0-1.044-.62-2.248-1.47-2.743-.85-.514-1.486-.018-1.486 1.01v.016c0 1.045.62 2.248 1.47 2.743zm.018-.725c-.495-.3-.85-1.027-.85-1.646v-.017c0-.62.355-.94.833-.658.497.3.85 1.027.85 1.647v.017c0 .62-.335.937-.83.654zm1.84 1.77l.62.353v-1.167l.48.283.583 1.524.71.424-.673-1.716c.354.036.602-.194.602-.778v-.017c0-.336-.09-.673-.25-.974a2.064 2.064 0 0 0-.795-.85l-1.275-.743v3.664zm.62-1.522v-1.063l.603.355c.303.177.48.46.48.814 0 .32-.177.424-.46.247l-.62-.353z"/><path fill="#C52B57" d="M78.64 114.067c-3.184-2.035-7.06-4.212-10.406-6.194-2.14-1.293-1.805 1.628-1.805 3.22v7.17c0 .884-.09 3.698.016 4.424.672.478 8.938 5.31 10.39 6.176 1.078.656 1.804.284 1.804-1.043 0-2.94-.016-1.982 0-4.92v-8.833zm-2.104.407c.158.177.477.673.6.885l-.016.23a5.642 5.642 0 0 1-.584-.798v-.32zm-1.912-1.876l.142.656-.656-.39-.176-.76.69.494zm-2.92-1.026l.212-.053c.106-.02.16-.02.3.033.142.265.32.62.39.902a.68.68 0 0 1-.566.124c-.124-.336-.283-.603-.425-.957.053-.052.018-.017.09-.052zm-1.718.78c.177.193.53.742.655.99l-.422.495-.69-.938c.088-.23.318-.445.46-.55zm-1.663 2.317l.85.953-.284.85c-.23-.212-.657-.673-.85-.92l.282-.885zm-.248 5.45l-.992-.744.25-1.115.99.798-.248 1.06zm5.682 4.02c-.142-.163-.036.05-.124-.233l-.177-.814c.884.654.902.673 1.008 1.15.054.178.107.32.124.48-.124-.073-.76-.515-.83-.585zm-.53-4.198c.564.832.6.443.724 1.54-.16-.09-.67-.69-.794-.885 0-.106-.018-.336-.018-.406.018-.3-.052-.25.09-.25zm.087-1.646l.142-.584c.177.213.3.478.442.744a.675.675 0 0 1-.053.69c-.16-.176-.32-.585-.53-.85zm1.062-.956c-.123-.246-.318-.69-.372-.883.106-.124.106-.195.283-.248l.337.85c-.088.12-.124.245-.248.28zm1.168-.83h-.213l-.104-.443-.106-.283.442.07.142.638-.16.018zm2.177.867c-.37-.39-.847-1.434-2.423-2-.62-.177-1.256.088-1.628.53-.213.266-.355.46-.514.85-.283.726-.478 1.646-.53 2.673-.02.992.105 2.036.264 3.062.07.496.16.92.265 1.416.088.46.23.955.3 1.38l-2.176-1.31-1.95-1.15-.973-.584c.018-1.15.177-2.035.248-3.08.09-.265.16-.85.23-1.185.248-1.1.602-2.073 1.08-2.905.318-.584.62-.956 1.008-1.38.762-.78 1.186-.69 1.293-.815 1.77-.282 3.734 1.152 5.274 3.594.107.213.214.354.32.602l-.09.3z"/><path fill="#434242" d="M90.11 125.076c-.725-.496-1.574-1.045-2.017-.69-.46.372-.337 1.61-.337 2.655v3.4c.018.124-.017.053.054.124l1.274.76v-1.184l1.292.742v1.168l1.346.796v-4.266c0-1.7-.09-2.513-1.612-3.504zm.248 2.744v1.096l-.814-.477-.442-.267v-1.93l1.256.744v.832zM86.57 125.11c-.035-1.415-.6-2.247-1.522-3.006-.442-.337-2.194-1.453-2.583-1.594v7.08l1.29.743v-1.788c.18.213.85 1.61 1.01 1.93.142.3.106.336.407.513l1.735 1.026c-.07-.32-1.292-2.567-1.54-3.097.815.282 1.257-.442 1.204-1.806zm-1.628.02c-.16-.036-.955-.514-1.114-.673v-1.222l1.114.673v1.22zM103.456 135.908c-.46-.832-1.345-1.24-2.07-1.664v-.654c.46.283 1.857 1.025 2.21 1.344v-1.858c-1.574-.956-3.45-2.584-3.698-.53-.123 1.08.142 1.98.69 2.743.726 1.006 1.47 1.077 2 1.785.09.832-.495.355-1.062.018-.513-.3-1.044-.62-1.574-.92v1.664c.336.123.884.494 1.238.707 1.133.673 2.354 1.61 2.602.213.16-.815.053-2.143-.336-2.85zM93.066 126.81l-.017 6.745 1.38.85v-6.762c-.143-.178-.746-.48-.957-.585l-.408-.248zM97.244 129.342l-1.346-.762-.017 6.762 2.426 1.433.283.177.62.355v-1.788l-1.965-1.17"/><path fill="#F5F5F5" d="M153.19 24.44v3.29c.037.266.037.55 0 .815v5.628c.213 1.682-.867 3.487-3.132 4.85L121.863 55.96c-3.876 2.32-9.86 2.55-13.274.497l-29.843-17.93c-1.7-1.01-2.46-2.407-2.336-3.823v-5.858a3.36 3.36 0 0 1 0-.602v-3.487c-.14-1.646.92-3.416 3.15-4.743l28.196-16.938c3.876-2.32 9.858-2.55 13.273-.496l29.84 17.93c1.734 1.044 2.496 2.477 2.32 3.93z"/><path fill="#37B4DC" d="M154.376 24.492v3.168c.018.16.018.32.018.478 0 .14 0 .3-.018.46v5.522c.125 1.097-.176 2.23-.867 3.292-.62.956-1.577 1.86-2.85 2.637l-28.196 16.92c-2.108 1.273-4.78 1.963-7.363 2.052-2.62.106-5.203-.407-7.114-1.558l-29.84-17.91c-1.01-.603-1.754-1.328-2.23-2.143a4.73 4.73 0 0 1-.604-1.54h-.087V24.758c-.07-1.08.247-2.178.92-3.187.62-.937 1.558-1.822 2.814-2.583l28.194-16.92c2.106-1.275 4.78-1.965 7.364-2.053 2.62-.106 5.203.407 7.115 1.557l29.84 17.914c1.028.62 1.788 1.38 2.266 2.194.53.886.74 1.86.635 2.815zm-2.37 3.238v-3.29l.016-.143a2.266 2.266 0 0 0-.318-1.416c-.283-.494-.762-.954-1.435-1.36L120.43 3.59c-1.524-.903-3.63-1.31-5.825-1.22-2.212.09-4.478.653-6.23 1.715L80.18 21.022c-.937.567-1.627 1.186-2.07 1.84-.39.603-.566 1.223-.513 1.79v3.698c-.017.07-.017.142-.017.195 0 .106 0 .177.017.212v4.762h.107l-.107 1.29c-.053.477.053.937.337 1.38.282.48.76.94 1.415 1.33l29.84 17.927c1.52.903 3.63 1.31 5.822 1.22 2.212-.088 4.478-.654 6.248-1.716l28.178-16.937c.974-.567 1.664-1.222 2.09-1.894.405-.6.565-1.22.494-1.806l-.017-.142v-5.628l.017-.142c0-.088.018-.177.018-.265s-.018-.177-.018-.266l-.017-.14z"/><path fill="#E0EEF7" d="M121.03 23.13l2.196 1.31h29.964v3.29c.037.266.037.55 0 .815v5.628c.213 1.682-.85 3.487-3.132 4.85L121.863 55.96c-3.876 2.32-9.86 2.55-13.274.497l-29.843-17.93c-1.7-1.01-2.46-2.407-2.336-3.823v-5.858a3.36 3.36 0 0 1 0-.602V24.44h29.983l1.363-.816c3.876-2.318 9.858-2.548 13.273-.495z"/><path fill="#37B4DC" d="M121.154 22.934l2.125 1.274h30.157v3.505c0 .142.018.283.018.425s-.018.283-.018.425v5.61c.107.903-.142 1.823-.708 2.725-.55.833-1.417 1.647-2.567 2.337l-28.177 16.92c-1.982 1.186-4.478 1.842-6.92 1.93-2.46.088-4.85-.372-6.602-1.434l-29.84-17.91c-.868-.53-1.505-1.133-1.913-1.805-.423-.708-.6-1.47-.53-2.23v-5.858c-.017-.107-.017-.195-.017-.3 0-.09 0-.196.017-.302v-4.037h30.16l1.293-.778c1.982-1.186 4.478-1.84 6.92-1.93 2.46-.088 4.85.372 6.6 1.434zm1.948 1.717l-2.195-1.31c-1.663-1.006-3.964-1.45-6.336-1.36-2.352.09-4.776.707-6.69 1.857l-1.362.815-.123.036H76.66v3.593c-.02.09-.02.178-.02.266v.283l.02.017v5.61h.017l-.018.266c-.07.672.087 1.345.46 1.964.37.602.954 1.168 1.75 1.646l29.84 17.912c1.665 1.01 3.966 1.452 6.338 1.363 2.37-.09 4.777-.708 6.688-1.86l28.196-16.92c1.08-.654 1.876-1.397 2.39-2.194s.725-1.628.636-2.424v-5.683c.017-.142.017-.265.017-.39s0-.265-.017-.39v-3.06h-29.735l-.123-.036z"/><path fill="#FEFEFE" d="M121.03 2.58l29.842 17.93c3.434 2.053 3.062 5.628-.814 7.964l-28.195 16.92c-3.876 2.337-9.86 2.567-13.274.496L78.746 27.978c-3.434-2.053-3.062-5.646.814-7.964l28.196-16.938c3.876-2.32 9.858-2.55 13.273-.496z"/><path fill="#37B4DC" d="M121.154 2.385l29.842 17.912c.867.53 1.505 1.15 1.91 1.823.39.637.568 1.31.55 2-.018.69-.23 1.38-.637 2.053-.55.903-1.436 1.77-2.657 2.496l-28.177 16.936c-1.982 1.186-4.478 1.823-6.92 1.93-2.46.088-4.85-.39-6.602-1.435l-29.84-17.93c-.868-.51-1.505-1.13-1.913-1.82a3.548 3.548 0 0 1-.547-2c.017-.69.23-1.38.637-2.054.55-.902 1.434-1.752 2.656-2.496l28.177-16.92c1.982-1.185 4.478-1.84 6.92-1.928 2.46-.09 4.85.37 6.6 1.433zm29.594 18.32l-29.84-17.912c-1.664-1.01-3.965-1.452-6.337-1.363-2.352.088-4.776.708-6.69 1.858l-28.193 16.92c-1.15.69-1.982 1.487-2.478 2.337a3.64 3.64 0 0 0-.568 1.823c-.016.602.143 1.186.48 1.752.353.602.938 1.168 1.752 1.646l29.84 17.93c1.664 1.008 3.965 1.45 6.337 1.362 2.37-.09 4.778-.708 6.69-1.858l28.195-16.938c1.15-.69 1.982-1.487 2.477-2.32.373-.6.55-1.22.567-1.822a3.154 3.154 0 0 0-.477-1.752c-.353-.62-.938-1.186-1.752-1.664z"/><path fill="#37B4DC" d="M130.464 16.032l-1.256-.726.726-.443a1.24 1.24 0 0 1 1.24 0l.017.018c.39.214.39.48.02.71l-.745.443zm-14.99-.797c.69-.425 1.663-.407 2.53.09v.016c.886.498.922 1.047.23 1.454l-.46.283-2.76-1.575.46-.265zm2.477 3.274l1.578-.94c1.47-.884 1.185-2.053-.373-2.938l-.017-.018c-1.557-.884-3.522-1.01-4.99-.123l-1.594.956 5.398 3.062zm-5.007 2.99l1.186-.71-.674-.724 1.594-.956 1.273.373 1.222-.726-7.186-2.053-1.1.655 3.68 4.14zm-.318-2.3l-1.062-1.15 2 .6-.938.55zm-3.15 2.92c-.62.37-1.735.247-2.514-.196h-.017c-.778-.443-1.027-1.08-.39-1.45.638-.39 1.735-.25 2.514.193l.018.02c.78.44 1.027 1.06.39 1.432zm1.345.78c1.273-.763.972-2.055-.586-2.94h-.017c-1.54-.885-3.735-1.027-5.01-.266-1.255.76-.955 2.053.585 2.92l.018.018c1.557.885 3.734 1.027 5.01.266zm-5.594 3.202l3.15-1.877-1.31-.744-2 1.205-4.09-2.336-1.148.69 5.398 3.062zm26.868-7.84l1.114-.674-1.593-.903.495-.3 2.408.423 1.273-.76-2.793-.478c.23-.46.018-.957-.797-1.417-.532-.3-1.046-.46-1.594-.495a3.216 3.216 0 0 0-1.876.46l-1.894 1.132 5.258 3.01zm-3.842 2.282l3.274-1.947-1.256-.708-2.16 1.29-.83-.477 1.928-1.15-1.15-.655-1.93 1.15-.796-.46 2.124-1.258-1.222-.708-3.238 1.93 5.256 2.99zm-2.16 1.415c.886-.53.904-1.115.603-1.735l-1.63.053c.143.37.143.654-.264.902-.565.336-1.573.23-2.37-.23h-.02c-.76-.443-.99-1.026-.44-1.363.39-.23.903-.25 1.505-.178l-.02-.99c-.99-.144-1.963-.09-2.795.405-1.223.726-.904 1.947.62 2.814l.017.017c1.575.885 3.645.99 4.796.3zm-6.565 3.805l1.115-.672-2.885-1.646 4.6.62.975-.586-5.257-2.99-1.114.655 2.797 1.594-4.442-.603-1.044.62 5.258 3.008zm-5.186.655l-1.025-1.114 1.93.584-.903.53zm.303 2.25l1.168-.692-.654-.708 1.557-.938 1.24.372 1.185-.708-7.01-2-1.08.637 3.595 4.036zm-3.222 1.946l3.063-1.84-1.274-.727-1.965 1.166-3.983-2.265-1.114.656 5.274 3.01zm-5.185.654l-1.044-1.114 1.95.583-.905.53zm.283 2.25l1.17-.692-.656-.708 1.56-.938 1.238.372 1.203-.708-7.026-2-1.08.637 3.593 4.036zm-2.973-.16h.018c.3.176.283.388-.053.6l-.87.514-.972-.55.85-.512c.39-.212.743-.212 1.026-.053zm-2.106-1.01c.3.16.247.372-.09.566l-.69.425-.94-.53.745-.424c.32-.194.656-.212.957-.053l.018.018zm1.29 3.45l2.07-1.255c.975-.566.975-1.22.073-1.734-.726-.406-1.398-.424-2.088-.265.14-.318.052-.69-.55-1.025l-.017-.02a3 3 0 0 0-1.115-.335 2.702 2.702 0 0 0-1.576.406l-2.053 1.223 5.257 3.01z"/><path fill="#404036" d="M148.358 115.572c-.3-.018-1.433-.284-1.592-.177-.09.035-.107.123-.178.212 0 .37.036 5.575 0 5.7-.123.406-.602-.143-1.06.123-.16.09-2.497 3.274-2.833 3.7-.16.194-.265.353-.265.654v4.054c0 .424.265.37.654.424.283.052.53.106.832.16l1.222.212c.53.106.424.07 1.274-1.044.283-.373.53-.727.814-1.098l1.24-1.646a.955.955 0 0 0 .247-.672V115.96c0-.37-.177-.37-.355-.388zm-1.84 10.55c0 .105-.123.246-.23.37l-.477.654c-.052.053-.087.107-.14.16-.036.053-.07.124-.125.16-.034.018-.424-.07-.495-.07-.09-.02-.16-.037-.25-.054-.087-.018-.21 0-.21-.107v-1.31c0-.07.052-.14.087-.194l.372-.476c.564-.76.424-.69.76-.62l.494.07c.107.037.214.02.214.108v1.31z"/><path fill="#82CC28" d="M134.87 129.98v4.264c0 .32.392.283.693.336.264.035.512.107.795.143.266.035 1.504.3 1.61.23.143-.09.302-.338.426-.496.14-.178.265-.354.408-.53l1.61-2.143c.3-.407.708-.832.708-1.186v-4.212c0-.337-.354-.283-.673-.355l-1.594-.28c-1.114-.195-.636-.407-2.512 2.053l-1.167 1.557c-.123.177-.3.37-.3.618z"/><path fill="#404036" d="M127.332 134.297v5.664c0 .09.088.16.16.108.14-.07.972-1.24 1.114-1.416.83-1.078.797-.955.797-1.662 0-.69-.036-1.558 0-2.248.017-.372.23-.566.424-.832.655-.867.567-.85 1.222-.725.192.035.404 0 .44.318.035.55 0 1.612 0 2.25 0 .725-.036.654.78.76.16.035 1.01.213 1.132.16a.513.513 0 0 0 .16-.32v-5.645c0-.248-.142-.265-.284-.283-.143-.02-.25-.054-.39-.07-.302-.037-2.284-.444-2.444-.356-.177.106-2.105 2.743-2.424 3.15-.3.39-.69.832-.69 1.15zM149.898 121.342v4.14c0 .444.284.356.638.41l.814.14c1.716.195 1.433.602 2.213-.442l.956-1.24c.44-.566.634-.814.103-.884a3.9 3.9 0 0 1-.39-.07l-1.91-.32c-.46-.053-.338.177-.338-1.486 0-.178.355-.603.46-.727.674-.902.48-.76 1.01-.672.14.02.32.038.443.073.193.053.14.213.123.69 0 1.204.196.584 1.22-.726.197-.248.338-.442.515-.69.478-.637.39-.46.39-1.787 0-.337-.443-.337-.69-.373-.32-.036-2.267-.46-2.426-.372-.106.053-.337.407-.426.513-.14.195-.264.336-.405.532l-2 2.655c-.126.158-.303.406-.303.637z"/><path fill="#82CC28" d="M157.19 117.182v4.053c0 .585 1.292.513 1.47.425.584-.336.903-.78.903-1.752v-3.68c0-.214-.213-.037-.408.07-.16.088-.106.335-.106.53 0 .496.033 3.523-.038 3.735-.177.584-.62.496-.83.442-.16-.034-.337-.052-.497-.088v-4.07c.177-.16 2.585-3.47 2.69-3.54l2.407.406c.09.018.3-.017.3.16v3.84c0 .16-.46.673-.636.938l-2.07 2.728-.71-.142c-.122.09-.335.408-.512.568.036.176.69.21.868.246.442.106.636-.283 1.256-1.115l1.68-2.248c.302-.408.603-.69.603-1.292v-3.86c0-.583-.513-.512-1.026-.6l-1.664-.284c-.567-.104-.602.038-1.398 1.1l-1.646 2.194c-.266.354-.638.726-.638 1.24z"/><path fill="#82CC28" d="M159.898 116.758c0 .69.16.902.885.637.32-.142 1.187-.62 1.187-.195 0 .76-1.187 1.275-1.434 1.24-.283-.037-.142-.532-.354-.408-.354.212-.39.177-.39.39 0 1.397 1.682.424 2.266-.32.39-.513.442-.85.442-1.326 0-.903-1.01-.337-1.54-.143-.212.072-.548.23-.548-.052 0-.69 1.115-1.166 1.326-1.043.3.16-.123.567.568.178.283-.178-.018-1.31-.956-.762-.424.248-.76.39-1.133.903-.16.23-.32.566-.32.903zM152.41 121.643c0 .442-.052.743.09.797l.53.07c.054-.053.39-.514.48-.62.176-.247.123-.123.123-.973 0-.177-.584-.177-.602-.177-.034.018-.62.707-.62.903z"/><path fill="#434242" d="M188.023 184.05a2.45 2.45 0 0 1 0-.514c0-.16.053-.83-.107-.955l-1.31.798c.036.265.018.55.018.832l.07.848c-.442-.017-1.61-1.398-2.23-1.858l-1.256.76 3.806 3.488c1.38-.814 1.363-.673.955-1.044l-1.08-.99c.707.034 2.476.547 2.777.44l1.257-.778-2.902-.55c-.054-.21.017-.264 0-.476z"/><path fill="#434242" d="M191.916 182.244c-.637.035-1.7.48-1.84.124-.017-.177.176-.3.53-.477.283-.14.55-.194.833-.32-.09-.192-.41-.457-.675-.617-2.336.797-2.815 2.107-1.452 2.514.85.248 1.77-.266 2.266-.16.53.107.105.443-.284.62-.444.213-.744.248-1.186.39.072.21.408.478.674.636 1.363-.425 2.78-1.203 2.53-2.017-.123-.425-.813-.726-1.398-.69zM182.925 189.607c-.107-.087-.195-.16-.3-.248-.462-.426-1.346-1.364-1.912-1.56-1.947-.67-4.975 2.178-1.877 3.523 1.558.69 3.026-.477 2.78-1.027l.318.266c1.24-.76 1.292-.672.99-.956zm-2.83.85c-.57-.07-.958-.566-1.064-.85-.14-.32-.157-.708.57-.903 1.486.426 1.61 1.912.495 1.753z"/><path fill="#434242" d="M177.262 190.297l-.833-.795c-.92.513-.798.76-.87 1.185l-.407-.32-1.095.656c.493.637 2.405 2.036 2.618 2.497l.247.14 1.257-.76c-1.257-1.044-2.284-1.7-.92-2.603zM185.827 186.935c-.3.3-.513.672-1.097.885-1.204.424-2.885-1.08-.265-1.964l-.707-.656c-1.134.443-1.86.956-2.143 1.63-.548 1.31 1.38 2.777 3.54 1.82.425-.175 1.008-.565 1.257-.848.23-.282-.09-.478-.585-.867zM208.89 173.767c-.053-.09-.55-.514-.655-.603-.23.178-1.204 1.77-2.478 1.258.673-.425 1.327-.85 1.628-1.327.6-.975-1.22-1.806-2.938-.673-2.052 1.345-.265 3.327 1.876 3.043 1.115-.158 2.76-1.38 2.567-1.698zm-3.947-.495c.32-.797 2.177-.62.088.565-.157-.212-.174-.372-.086-.565zM194.34 178.81c-1.45.213-1.538 1.133-1.627 1.293l-.32-.266c-1.522.92-1.415.39.71 2.354.583.55 1.273 1.277 1.928 1.754l1.24-.76-.9-.832c3.45-1.29 1.15-3.858-1.028-3.54zm.408 2.885c-1.274-.636-1.47-2.016-.3-1.858.566.09 1.026.655 1.113.938.127.39-.067.656-.81.92z"/><path fill="#434242" d="M204.59 175.5c-.303.285-.514.69-1.098.887-1.204.406-2.885-1.045-.265-1.965-.125-.142-.514-.53-.745-.655-2.283.92-2.885 2.388-1.433 3.328 1.47.955 3.307.14 4.122-.727.248-.264-.053-.46-.584-.867zM196.358 177.803c-.512 1.397 1.505 2.76 3.063 2.158.745-.3 1.01-.777.957-1.096l.32.267 1.22-.742c-.566-.46-1.805-1.86-2.566-2.072-1.22-.337-2.725.726-2.99 1.488zm2.762 1.238c-.69-.033-1.098-.37-1.31-.795-.177-.353-.213-.743.548-.99.55.16 2 1.168.762 1.787zM169.226 192.015a6.973 6.973 0 0 0-1.363-.036c-1.928.086-3.487.742-4.868 1.59.02.16-.034.726.036.85 1.153-.726 2.02-1.362 3.737-1.716l.584-.07c.354.76.107 1.504 1.294 3.043.423.53.972 1.026 1.75 1.433 1.205.62 1.682.55 2.497.85-.017.16-.14.515-.354.64-1.238-.673-4.3-1.49-5.238-.178-.673.955.548 2.407 2.16 3.204 2.6-.727 4.247-2.94 4.566-4.125.655-2.334-.797-5.024-4.797-5.484z"/><path fill="#C52B57" d="M169.526 202.422c-2.124-1.257-3.468-2.355-4.548-4.036a7.014 7.014 0 0 1-.85-1.823 5.685 5.685 0 0 1-.23-.938c-.07-.406-.213-.53.46-.974.142.427 0 .87.514 1.507 1.08 1.31 2.69.107 2.336-1.593-.07-.372-.353-1.186-.708-1.54-3.292 1.15-4.584 2.62-5.15 4.78-.07.282-.053.442-.036.725.088 1.556.957 3.184 3.434 3.93 1.362.423 3.434.44 4.778-.037z"/><path fill="#FFF" d="M165.792 194.475c-1.08.424-.55 1.734.23 1.592.744-.124.903-1.433-.23-1.592z"/><path fill="#6863A5" d="M28.553 172.51l1.22.762c.302.07 2.143-.266 2.585-.426l-1.31-.814c-.725.23-1.876.406-2.495.478z"/><path fill="#6863A5" d="M34.836 172.492c-.177-.265-4.053-2.566-4.69-2.956-.478-.283-2-1.292-2.425-1.433-1.15-.39-1.84.16-2.565.602l-7.84 4.76c-.673.408-1.717.868-1.186 1.558.194.248 4.07 2.567 4.707 2.957.46.282 2 1.29 2.425 1.45 1.134.39 1.912-.248 2.532-.62l7.84-4.76c.69-.425 1.7-.867 1.204-1.558zm-9.026 5.876c-.762.478-1.505 1.08-2.354.727-.55-.232-1.718-1.045-2.266-1.364l-4.442-2.74c-.62-.497.354-.957 1.132-1.435l7.292-4.425c.78-.48 1.487-1.062 2.373-.71l5.592 3.417c.637.39 1.68.814 1.097 1.38-.16.178-.867.567-1.132.726l-7.292 4.425z"/><path fill="#6863A5" d="M25.88 172.174l2.708-1.664-1.186-.708c-.46.16-3.628 2.177-4.265 2.566.566.177 4.478 1.097 3.947 1.718-.142.158-4.142 2.548-4.708 2.884l1.15.726c.726-.443 4.638-2.76 4.974-3.08 1.256-1.115-1.115-2-2.62-2.442zM35.685 178.758l2.266-1.38-.97-.585-6.92 4.213.972.584 3.753-2.283c.443.052 1.097.318 1.487.513.796.39.442.513-.23.92-1.044.637-2.213 1.31-3.204 1.965l.956.583c.637-.39 3.7-2.212 4.018-2.513 1.22-1.168-1.594-1.77-2.125-2.017zM19.03 174.882l2.496-.036c.036-.247.036-.495.053-.743.016-.212.087-.602.016-.78l-2.566 1.56zM59.19 192.917l-3.734 2.266c-.425-.018-1.116-.3-1.487-.496-.834-.408-.604-.478.122-.92 1.08-.655 2.194-1.31 3.238-1.983l-.955-.583c-.813.48-1.628.99-2.442 1.488-1.575.956-3.15 1.628-.353 2.78 1.168.46 1.646.424 2.318.618l4.248-2.565-.956-.602zM50.128 187.75c-.053-.497-.655-1.045-1.434-1.382-1.557-.672-3.168-.247-4.655.815-1.435 1.008-1.33 1.947.423 2.76 1.505.708 3.168.267 4.655-.76.725-.514 1.06-.956 1.008-1.434zm-2 .866c-.85.585-1.86 1.098-2.814.743-.46-.16-.903-.497-.938-.78-.07-.566 1.415-1.38 2.124-1.61.53-.16.92-.16 1.398.017.442.142.92.495.938.78 0 .264-.283.565-.708.848zM55.58 190.723l-1.08-.673c-.48.16-1.256.283-1.734.353a21.19 21.19 0 0 1-.886.09c-.53.035-.39.035-.85-.25l3.965-2.423-.956-.567-6.94 4.195.957.584 2.247-1.345.53.318c-.087.125-.052.107-.07.248l-.3.78c-.195.37-.602.902-.674 1.043l1.117.69c.265-.265.584-.99.725-1.29a9.14 9.14 0 0 0 .48-1.275c.175-.05 2.476-.14 3.468-.476zM36.942 183.73c.177-.21.584-.512.903-.707l2.938 1.806c1.433-.816 2.442-1.578 1.38-2.463-.495-.407-1.575-.937-2.353-1.185-.266-.088-.248-.088-.496 0-1.363.55-4.07 1.893-3.84 2.903.088.425.672.83 1.29 1.15.71.353 1.276.424 1.966.636l.654-.564c-.6-.23-3.026-.78-2.442-1.576zm2.743-1.715c.39.14 1.257.6 1.487.83.284.302-.017.64-.602.94l-1.982-1.204c.283-.21.743-.423 1.097-.564zM45.65 185.607c.23-.053.673-.372.868-.512-.974-.568-1.86-.71-2.885-.974l-4.266 2.586.973.602 3.77-2.283c.584.106 1.257.53 1.54.583z"/><path fill="#FCBE14" d="M113.385 223.89l3.344-1.026-3.735-2.053-3.38 1.046 3.77 2.036zm2.585-6.247l3.01-.938c.174-.09 1.485-1.63 1.52-1.752-.143.035-2.726.92-2.85.99-.248.125-1.575 1.523-1.68 1.7zm-6.196 3.664c.213-.036.478-.142.76-.212l2.25-.726c.176-.09 1.486-1.63 1.52-1.755-.14.036-2.724.92-2.848.99-.248.125-1.593 1.523-1.682 1.7zm2.248 4.797c.496-.196 2.655-.762 2.992-.94l1.575-1.786c-.41.123-2.817.866-2.994.973-.16.09-1.54 1.666-1.575 1.755zm-6.265 3.68h.088c.443-.088 2.885-.884 2.938-.92.16-.09.637-.708.78-.867l.707-.814c.053-.088.018-.036.035-.088l-2.956.955c-.16.09-1.506 1.575-1.594 1.735zm8.425 1.028c.283-.054 2.813-.815 3.008-.92.14-.072 1.487-1.63 1.54-1.753-.23.015-2.76.83-2.973.936-.108.053-1.523 1.574-1.575 1.734zm5.31-10.638l3.326-1.028-3.628-1.998-3.363 1.043 3.664 1.985zm-5.947.282l3.68 2 1.665-1.93-3.63-2-1.715 1.93zm2.017 8.16l3.364-1.026-3.665-2-3.343 1.026 3.647 2zm4.176-11.823l3.682 2 1.664-1.93-3.63-2-1.716 1.93zm-10.46 15.54l3.364-1.026-3.664-2-3.345 1.026 3.646 2zm8.692-2.37l3.7 2.016c.05-.073 1.59-1.825 1.61-1.966l-3.594-1.983-1.716 1.93zm3.096 2.37l-3.68-2.035-3.346 1.06c.884.408 2.99 1.7 3.54 1.93.23.09.336 0 .867-.176l2.62-.78zm-7.858-1.38l1.61-1.858c.054-.09.054-.054 0-.124l-3.574-1.946c-.46.443-1.08 1.22-1.558 1.752-.124.142-.194.142-.036.248l3.558 1.93zm6.32-3.718l1.645-1.946-3.628-2c-.32.352-.62.69-.92 1.024l-.674.78c-.122.14-.175.105.02.23.496.318 1.22.655 1.77.937.513.284 1.257.745 1.79.974z"/><path fill="#434242" d="M132.163 223.023c.054.036.07.072.07.106s-.034.087-.105.14c-.07.053-.194.125-.353.23-.177.106-.3.178-.39.213a.706.706 0 0 1-.23.054c-.07 0-.124 0-.176-.037l-.428-.23c.017.25-.035.497-.176.727-.143.23-.372.443-.71.637-.264.16-.548.282-.85.37-.3.108-.6.162-.92.18-.3.017-.618 0-.918-.055a3.847 3.847 0 0 1-.87-.32c-.3-.177-.512-.354-.62-.55a.655.655 0 0 1-.034-.6c.088-.212.265-.443.53-.69a8.27 8.27 0 0 1 1.098-.76l.496-.303-.32-.16a2.648 2.648 0 0 0-.477-.21 1.444 1.444 0 0 0-.46-.072c-.16 0-.317.018-.477.072-.176.05-.336.14-.53.247-.23.14-.425.283-.55.424-.14.14-.247.265-.32.388-.087.124-.14.23-.192.32-.035.087-.09.14-.142.176s-.105.054-.158.054c-.054 0-.125 0-.196-.02-.07-.016-.158-.034-.247-.07-.073-.034-.16-.07-.25-.123a1.356 1.356 0 0 1-.264-.177c-.054-.053-.07-.106-.09-.16 0-.07.036-.158.108-.283.07-.106.16-.23.284-.37.105-.143.264-.284.44-.426.18-.143.373-.284.604-.426.39-.23.78-.406 1.15-.53a3.26 3.26 0 0 1 1.064-.23c.353-.02.69.018 1.044.124.335.088.69.23 1.062.424l3.503 1.913zm-3.663-.372l-.55.32a4.433 4.433 0 0 0-.53.373c-.14.124-.212.23-.247.337-.036.088-.018.175.035.263.035.09.142.16.266.23.213.125.46.178.708.16a1.75 1.75 0 0 0 .76-.23c.195-.124.337-.266.39-.424.07-.145.088-.34.054-.55l-.886-.48zm7.575-7.91c.054.036.09.054.142.108.052.035.124.088.213.176l3.363 3.38c.052.037.07.09.087.124.018.036 0 .09-.053.143-.034.054-.105.106-.212.177-.106.07-.265.177-.443.283-.194.105-.354.194-.478.266-.124.05-.247.105-.335.14-.09.018-.16.036-.23.036-.073-.018-.16-.036-.23-.053l-4.038-1.223-.07-.018.034.035 2.39 2.194c.052.053.09.09.106.123a.26.26 0 0 1-.053.14 1.45 1.45 0 0 1-.23.197c-.125.07-.267.16-.46.284-.178.105-.338.193-.46.265-.143.05-.25.104-.338.123-.088.035-.177.035-.248.035-.07 0-.14-.02-.212-.036l-6.09-1.77a2.406 2.406 0 0 0-.335-.106c-.07-.037-.123-.054-.176-.09a.14.14 0 0 1-.07-.07c0-.036.017-.054.053-.107.034-.035.088-.088.177-.16.09-.052.213-.123.337-.212.16-.088.283-.16.39-.213.106-.053.194-.09.265-.107.07-.017.142-.035.194-.017.053 0 .107.018.16.036l4.868 1.487.088.018-.07-.034-2.886-2.656a.314.314 0 0 1-.072-.088c0-.036 0-.07.036-.106.036-.053.09-.088.177-.16.07-.053.195-.123.337-.212.14-.07.247-.142.355-.194.102-.036.173-.072.245-.107.07-.017.124-.017.176-.017s.107.017.16.035l4.885 1.488.09.018-.054-.035-2.866-2.655a.438.438 0 0 1-.088-.106c0-.035.017-.07.035-.106.037-.035.107-.09.178-.14a2.33 2.33 0 0 1 .334-.214c.143-.087.267-.158.373-.212.088-.035.177-.07.248-.106.07-.017.124-.017.176-.017.054 0 .09.018.124.034zm8.212-.583c.302.16.514.336.62.514.124.195.16.39.107.585-.036.212-.16.407-.355.602a3.093 3.093 0 0 1-.78.583c-.195.124-.39.21-.584.3-.213.088-.407.16-.584.23-.178.053-.337.09-.48.124-.14.017-.246.035-.336.035-.086 0-.175 0-.3-.037-.105-.034-.248-.106-.425-.195-.105-.072-.194-.107-.246-.16-.054-.035-.106-.07-.123-.106-.035-.035-.035-.053-.035-.07a.14.14 0 0 1 .07-.072.858.858 0 0 1 .266-.07c.125-.018.285-.053.46-.09a4.97 4.97 0 0 0 .603-.158c.212-.07.425-.16.62-.283.14-.09.23-.16.3-.23.09-.07.124-.16.16-.23.017-.07.017-.14-.036-.195-.035-.07-.106-.125-.212-.176-.106-.073-.248-.108-.407-.108s-.32.018-.496.035c-.178.036-.372.088-.568.14a8.28 8.28 0 0 1-.636.18c-.23.052-.46.104-.69.14-.23.035-.46.07-.71.07s-.476-.035-.723-.088a2.467 2.467 0 0 1-.744-.284 1.44 1.44 0 0 1-.55-.46.703.703 0 0 1-.122-.53c.036-.178.14-.373.318-.567a2.61 2.61 0 0 1 .744-.585c.177-.107.336-.195.513-.267.178-.07.336-.14.496-.194.16-.054.3-.09.424-.125.125-.034.213-.034.284-.05h.176c.035.016.09.016.124.032.052.018.105.054.177.072.07.035.14.07.23.124.105.052.194.105.266.14a.7.7 0 0 1 .124.107c.017.035.035.052.017.07 0 .02-.034.054-.05.07a.79.79 0 0 1-.23.055c-.107.017-.248.052-.408.087-.14.053-.32.088-.495.16-.196.07-.37.14-.567.265-.122.07-.23.14-.3.212s-.105.14-.122.212c0 .052.017.122.052.176a.408.408 0 0 0 .158.142c.125.07.266.105.426.105.158 0 .32-.017.495-.053a9.03 9.03 0 0 0 .583-.14c.212-.072.424-.125.637-.178.23-.07.46-.107.692-.16.23-.036.477-.054.725-.07.23 0 .478.034.725.09.248.033.496.14.725.263z"/></svg>